<svg xmlns="http://www.w3.org/2000/svg" width="700" height="801" viewBox="0 0 900 1030">
<defs>
<linearGradient id="bg" x1="0" y1="0" x2="0" y2="1">
<stop offset="0%" stop-color="#071224"/><stop offset="100%" stop-color="#020814"/>
</linearGradient>
<linearGradient id="gold" x1="0" x2="1">
<stop offset="0%" stop-color="#fff3d2"/><stop offset="100%" stop-color="#f4b942"/>
</linearGradient>
<filter id="glow"><feGaussianBlur stdDeviation="6" result="b"/><feMerge><feMergeNode in="b"/><feMergeNode in="SourceGraphic"/></feMerge></filter>
</defs>
<rect width="100%" height="100%" fill="url(#bg)"/>
<g fill="#ffe9aa" opacity=".8">
<circle cx="80" cy="90" r="2"/><circle cx="760" cy="70" r="2"/><circle cx="160" cy="90" r="1.5"/>
<circle cx="830" cy="210" r="2"/><circle cx="70" cy="530" r="1.8"/><circle cx="820" cy="925" r="2"/>
</g>
<g stroke="#2b6cb0" stroke-width="2" opacity=".45">
<path d="M40 120h120l20-20h70"/><path d="M860 120h-120l-20-20h-70"/>
<path d="M30 995h150l25-25h80"/><path d="M870 995h-150l-25-25h-80"/>
</g>
<g filter="url(#glow)">
<circle cx="285" cy="360" r="230" fill="none" stroke="#3ea0ff" stroke-width="4"/>
<circle cx="615" cy="360" r="230" fill="none" stroke="#55ffd7" stroke-width="4"/>
<circle cx="450" cy="670" r="230" fill="none" stroke="#d87cff" stroke-width="4"/>
</g>
<text x="285" y="230" text-anchor="middle" fill="#fff" font-size="28" font-weight="700">FULLSTACK</text>
<image href="https://skillicons.dev/icons?i=,docker,js,react,html,css" x="30" y="230" width="350" height="150"/>
<image href="https://skillicons.dev/icons?i=,django,fastapi,cs,dotnet,mysql" x="20" y="300" width="350" height="150"/>
<text x="615" y="230" text-anchor="middle" fill="#fff" font-size="28" font-weight="700">DATA ANALYTICS</text>
<!-- Primera fila -->
<image href="https://skillicons.dev/icons?i=mysql" x="550" y="305" width="60" height="60"/>
<image href="https://cdn.simpleicons.org/numpy/f5f0e1" x="620" y="307" width="56" height="56"/>
<image href="https://cdn.simpleicons.org/pandas/f5f0e1" x="690" y="307" width="56" height="56"/>
<image href="https://cdn.simpleicons.org/mysql/f5f0e1" x="750" y="307" width="56" height="56"/>
<!-- Segunda fila -->
<image href="https://cdn.simpleicons.org/jupyter" x="550" y="378" width="56" height="56"/>
<image href="https://raw.githubusercontent.com/microsoft/PowerBI-Icons/main/SVG/Power-BI.svg" x="620" y="378" width="56" height="56"/>
<image href="https://img.icons8.com/color/96/microsoft-excel-2019.png" x="690" y="378" width="56" height="56"/>

<rect x="415" y="320" width="70" height="70" rx="12" fill="#0f172a" stroke="#ffd166"/>
<image href="https://skillicons.dev/icons?i=python" x="423" y="328" width="54" height="54"/>

<text x="450" y="870" text-anchor="middle" fill="#fff" font-size="28" font-weight="700"> CLOUD</text>
<image href="https://skillicons.dev/icons?i=git,github" x="280" y="630" width="340" height="60"/>
<image href="https://skillicons.dev/icons?i=gcp,vscode,docker" x="280" y="700" width="340" height="60"/>
</svg>
