<svg width="860" height="110" viewBox="0 0 860 110" xmlns="http://www.w3.org/2000/svg">
<defs>
<linearGradient id="hl" x1="0" y1="0" x2="1" y2="0"><stop offset="0%" stop-color="#FB923C"/><stop offset="100%" stop-color="#F59E0B" stop-opacity="0.2"/></linearGradient>
<radialGradient id="gw" cx="50%" cy="0%" r="80%"><stop offset="0%" stop-color="#FB923C" stop-opacity="0.14"/><stop offset="100%" stop-color="#FB923C" stop-opacity="0"/></radialGradient>
<filter id="sf" x="-50%" y="-50%" width="200%" height="200%"><feGaussianBlur stdDeviation="1.5" result="b"/><feMerge><feMergeNode in="b"/><feMergeNode in="SourceGraphic"/></feMerge></filter>
<pattern id="gd" width="22" height="22" patternUnits="userSpaceOnUse"><path d="M22 0H0V22" fill="none" stroke="#FB923C" stroke-opacity="0.05" stroke-width="0.6"/></pattern>
<clipPath id="pc"><rect x="1" y="1" width="858" height="108" rx="16"/></clipPath>
</defs>
<g clip-path="url(#pc)">
<rect x="1" y="1" width="858" height="108" rx="16" fill="#0C1322"/>
<rect width="860" height="110" fill="url(#gd)"/>
<ellipse cx="430.0" cy="0" rx="473.00000000000006" ry="120" fill="url(#gw)"/>
<rect x="-70" y="-20" width="50" height="150" fill="#FFFFFF" fill-opacity="0.04" transform="skewX(-18)"><animate attributeName="x" values="-70;930" dur="6.5s" begin="0.6s" repeatCount="indefinite"/></rect>
</g>
<rect x="1" y="1" width="858" height="108" rx="16" fill="none" stroke="#FB923C" stroke-opacity="0.30" stroke-width="1.1"/>
<rect x="1" y="1" width="858" height="3" fill="url(#hl)" clip-path="url(#pc)"/>
<polygon points="44.8,25.5 44.8,34.5 37.0,39.0 29.2,34.5 29.2,25.5 37.0,21.0" fill="#FB923C" fill-opacity="0.18" stroke="#FB923C" stroke-width="1.2" filter="url(#sf)"><animate attributeName="fill-opacity" values="0.18;0.5;0.18" dur="3s" repeatCount="indefinite"/></polygon>
<text x="54" y="35" font-family="ui-monospace,'SF Mono',Consolas,monospace" font-size="15" font-weight="800" fill="#E2E8F0" letter-spacing="0.5">Data & Analytics &amp; analytics</text>
<text x="832" y="35" text-anchor="end" font-family="ui-monospace,Consolas,monospace" font-size="12" font-weight="700" fill="#FDBA74" fill-opacity="0.8">{ 07 }</text>
<g opacity="0"><animate attributeName="opacity" from="0" to="1" dur="0.4s" begin="0.3s" fill="freeze"/><animateTransform attributeName="transform" type="translate" from="0 6" to="0 0" dur="0.4s" begin="0.3s" fill="freeze"/><polygon points="28,58 107,58 115,66 115,88 28,88" fill="#FB923C" fill-opacity="0.09" stroke="#FB923C" stroke-opacity="0.45" stroke-width="1"/><polygon points="40,69.0 44,73.0 40,77.0 36,73.0" fill="#FB923C"/><text x="52" y="77.5" font-family="ui-monospace,'SF Mono',Consolas,monospace" font-size="13" font-weight="700" fill="#FDBA74" letter-spacing="0.2">Python</text></g>
<g opacity="0"><animate attributeName="opacity" from="0" to="1" dur="0.4s" begin="0.35s" fill="freeze"/><animateTransform attributeName="transform" type="translate" from="0 6" to="0 0" dur="0.4s" begin="0.35s" fill="freeze"/><polygon points="125,58 204,58 212,66 212,88 125,88" fill="#FB923C" fill-opacity="0.09" stroke="#FB923C" stroke-opacity="0.45" stroke-width="1"/><polygon points="137,69.0 141,73.0 137,77.0 133,73.0" fill="#FB923C"/><text x="149" y="77.5" font-family="ui-monospace,'SF Mono',Consolas,monospace" font-size="13" font-weight="700" fill="#FDBA74" letter-spacing="0.2">Pandas</text></g>
<g opacity="0"><animate attributeName="opacity" from="0" to="1" dur="0.4s" begin="0.4s" fill="freeze"/><animateTransform attributeName="transform" type="translate" from="0 6" to="0 0" dur="0.4s" begin="0.4s" fill="freeze"/><polygon points="222,58 294,58 302,66 302,88 222,88" fill="#FB923C" fill-opacity="0.09" stroke="#FB923C" stroke-opacity="0.45" stroke-width="1"/><polygon points="234,69.0 238,73.0 234,77.0 230,73.0" fill="#FB923C"/><text x="246" y="77.5" font-family="ui-monospace,'SF Mono',Consolas,monospace" font-size="13" font-weight="700" fill="#FDBA74" letter-spacing="0.2">NumPy</text></g>
<g opacity="0"><animate attributeName="opacity" from="0" to="1" dur="0.4s" begin="0.45s" fill="freeze"/><animateTransform attributeName="transform" type="translate" from="0 6" to="0 0" dur="0.4s" begin="0.45s" fill="freeze"/><polygon points="312,58 406,58 414,66 414,88 312,88" fill="#FB923C" fill-opacity="0.09" stroke="#FB923C" stroke-opacity="0.45" stroke-width="1"/><polygon points="324,69.0 328,73.0 324,77.0 320,73.0" fill="#FB923C"/><text x="336" y="77.5" font-family="ui-monospace,'SF Mono',Consolas,monospace" font-size="13" font-weight="700" fill="#FDBA74" letter-spacing="0.2">Power BI</text></g>
<g opacity="0"><animate attributeName="opacity" from="0" to="1" dur="0.4s" begin="0.5s" fill="freeze"/><animateTransform attributeName="transform" type="translate" from="0 6" to="0 0" dur="0.4s" begin="0.5s" fill="freeze"/><polygon points="424,58 496,58 504,66 504,88 424,88" fill="#FB923C" fill-opacity="0.09" stroke="#FB923C" stroke-opacity="0.45" stroke-width="1"/><polygon points="436,69.0 440,73.0 436,77.0 432,73.0" fill="#FB923C"/><text x="448" y="77.5" font-family="ui-monospace,'SF Mono',Consolas,monospace" font-size="13" font-weight="700" fill="#FDBA74" letter-spacing="0.2">Excel</text></g>
<g opacity="0"><animate attributeName="opacity" from="0" to="1" dur="0.4s" begin="0.55s" fill="freeze"/><animateTransform attributeName="transform" type="translate" from="0 6" to="0 0" dur="0.4s" begin="0.55s" fill="freeze"/><polygon points="514,58 601,58 609,66 609,88 514,88" fill="#FB923C" fill-opacity="0.09" stroke="#FB923C" stroke-opacity="0.45" stroke-width="1"/><polygon points="526,69.0 530,73.0 526,77.0 522,73.0" fill="#FB923C"/><text x="538" y="77.5" font-family="ui-monospace,'SF Mono',Consolas,monospace" font-size="13" font-weight="700" fill="#FDBA74" letter-spacing="0.2">Jupyter</text></g>
<g opacity="0"><animate attributeName="opacity" from="0" to="1" dur="0.4s" begin="0.6s" fill="freeze"/><animateTransform attributeName="transform" type="translate" from="0 6" to="0 0" dur="0.4s" begin="0.6s" fill="freeze"/><polygon points="619,58 675,58 683,66 683,88 619,88" fill="#FB923C" fill-opacity="0.09" stroke="#FB923C" stroke-opacity="0.45" stroke-width="1"/><polygon points="631,69.0 635,73.0 631,77.0 627,73.0" fill="#FB923C"/><text x="643" y="77.5" font-family="ui-monospace,'SF Mono',Consolas,monospace" font-size="13" font-weight="700" fill="#FDBA74" letter-spacing="0.2">SQL</text></g>
</svg>
